<?xml version="1.0" encoding="utf-8"?>
<svg xmlns="http://www.w3.org/2000/svg"
	xmlns:xlink="http://www.w3.org/1999/xlink"
	width="60px" height="69px" viewBox="0 0 60 69">
<path fillRule="evenodd" d="M 50.45 55.89C 49.4 55.89 48.38 55.72 47.4 55.39 46.5 58.66 44.59 61.62 41.95 63.67 41.95 63.67 41.95 65.5 41.95 65.5 41.95 67.43 40.37 69 38.42 69 38.42 69 9.55 69 9.55 69 7.6 69 6.01 67.43 6.01 65.5 6.01 65.5 6.01 63.67 6.01 63.67 2.29 60.77-0 56.05-0 51.19-0 51.19-0 34.5-0 34.5-0 32.57 1.59 31 3.53 31 3.53 31 44.44 31 44.44 31 46.38 31 47.97 32.57 47.97 34.5 47.97 34.5 47.97 34.9 47.97 34.9 48.77 34.68 49.6 34.57 50.45 34.57 55.72 34.57 60 38.82 60 44.04 60 44.04 60 46.42 60 46.42 60 51.64 55.72 55.89 50.45 55.89ZM 8.27 65.5C 8.27 66.2 8.84 66.76 9.55 66.76 9.55 66.76 38.42 66.76 38.42 66.76 39.13 66.76 39.7 66.2 39.7 65.5 39.7 65.5 39.7 64.23 39.7 64.23 39.7 64.23 8.27 64.23 8.27 64.23 8.27 64.23 8.27 65.5 8.27 65.5ZM 45.71 46.42C 45.71 46.42 45.71 44.04 45.71 44.04 45.71 44.04 45.71 34.5 45.71 34.5 45.71 33.8 45.14 33.23 44.44 33.23 44.44 33.23 3.53 33.23 3.53 33.23 2.83 33.23 2.26 33.8 2.26 34.5 2.26 34.5 2.26 51.19 2.26 51.19 2.26 55.42 4.26 59.52 7.52 62 7.52 62 40.45 62 40.45 62 43.71 59.53 45.71 55.42 45.71 51.19 45.71 51.19 45.71 46.42 45.71 46.42ZM 57.74 44.04C 57.74 40.05 54.47 36.81 50.45 36.81 49.59 36.81 48.76 36.96 47.97 37.24 47.97 37.24 47.97 40.04 47.97 40.04 48.69 39.6 49.54 39.34 50.45 39.34 53.06 39.34 55.19 41.45 55.19 44.04 55.19 44.04 55.19 46.42 55.19 46.42 55.19 49.01 53.06 51.12 50.45 51.12 49.54 51.12 48.69 50.86 47.97 50.42 47.97 50.42 47.97 51.19 47.97 51.19 47.97 51.86 47.93 52.52 47.84 53.17 48.67 53.49 49.55 53.65 50.45 53.65 54.47 53.65 57.74 50.41 57.74 46.42 57.74 46.42 57.74 44.04 57.74 44.04ZM 47.97 44.04C 47.97 44.04 47.97 46.42 47.97 46.42 47.97 47.78 49.08 48.88 50.45 48.88 51.82 48.88 52.93 47.78 52.93 46.42 52.93 46.42 52.93 44.04 52.93 44.04 52.93 42.68 51.82 41.58 50.45 41.58 49.08 41.58 47.97 42.68 47.97 44.04ZM 31.96 23.8C 30.83 24.84 29.92 25.65 29.92 27.35 29.92 27.96 29.42 28.46 28.8 28.46 28.17 28.46 27.67 27.96 27.67 27.35 27.67 24.67 29.21 23.27 30.44 22.15 31.58 21.12 32.48 20.3 32.48 18.61 32.48 16.91 31.58 16.09 30.44 15.06 29.21 13.94 27.67 12.54 27.67 9.86 27.67 9.25 28.17 8.74 28.8 8.74 29.42 8.74 29.92 9.25 29.92 9.86 29.92 11.56 30.83 12.38 31.97 13.41 33.2 14.53 34.74 15.93 34.74 18.61 34.74 21.28 33.2 22.68 31.96 23.8ZM 24.75 13.41C 25.98 14.53 27.52 15.93 27.52 18.61 27.52 21.28 25.98 22.68 24.75 23.8 23.61 24.84 22.71 25.65 22.71 27.35 22.71 27.96 22.2 28.46 21.58 28.46 20.96 28.46 20.45 27.96 20.45 27.35 20.45 24.67 21.99 23.27 23.22 22.15 24.36 21.12 25.26 20.3 25.26 18.61 25.26 16.91 24.36 16.09 23.22 15.06 21.99 13.94 20.45 12.54 20.45 9.86 20.45 7.18 21.99 5.79 23.22 4.67 24.36 3.63 25.26 2.81 25.26 1.12 25.26 0.5 25.77-0 26.39-0 27.01-0 27.52 0.5 27.52 1.12 27.52 3.8 25.98 5.19 24.75 6.31 23.61 7.35 22.71 8.17 22.71 9.86 22.71 11.56 23.61 12.38 24.75 13.41ZM 17.53 23.8C 16.39 24.84 15.49 25.65 15.49 27.35 15.49 27.96 14.98 28.46 14.36 28.46 13.74 28.46 13.23 27.96 13.23 27.35 13.23 24.67 14.77 23.27 16.01 22.15 17.14 21.12 18.05 20.3 18.05 18.61 18.05 16.91 17.14 16.09 16 15.06 14.77 13.94 13.23 12.54 13.23 9.86 13.23 9.25 13.74 8.74 14.36 8.74 14.98 8.74 15.49 9.25 15.49 9.86 15.49 11.56 16.39 12.38 17.53 13.41 18.76 14.53 20.3 15.93 20.3 18.61 20.3 21.28 18.76 22.68 17.53 23.8Z" fill="rgb(71,71,71)"/></svg>