<?xml version="1.0" encoding="utf-8"?>
<svg xmlns="http://www.w3.org/2000/svg"
	xmlns:xlink="http://www.w3.org/1999/xlink"
	width="60px" height="65px" viewBox="0 0 60 65">
<path fillRule="evenodd" d="M 57.72 48.71C 57.72 48.71 46.47 55.39 46.47 55.39 46.45 55.4 46.42 55.41 46.4 55.42 46.4 55.42 46 55.63 46 55.63 45.98 55.64 45.96 55.65 45.93 55.66 45.93 55.66 37.99 59.03 37.99 59.03 37.43 59.26 36.83 59.38 36.23 59.38 36.23 59.38 19.39 59.38 19.39 59.38 18.05 59.38 16.74 59.85 15.71 60.7 15.71 60.7 10.79 64.76 10.79 64.76 10.59 64.92 10.35 65 10.11 65 9.84 65 9.56 64.9 9.36 64.69 8.68 64.02 7.26 62.68 5.75 61.26 3.16 58.81 1.44 57.18 1.04 56.72-0.48 54.98-0.32 52.28 1.4 50.58 1.4 50.58 10.35 41.73 10.35 41.73 11.12 40.97 12.14 40.51 13.22 40.44 13.22 40.44 29.68 39.36 29.68 39.36 29.68 39.36 35.95 37.29 35.95 37.29 37.1 36.91 38.38 37.01 39.46 37.58 40.56 38.16 41.34 39.13 41.67 40.31 42.3 42.58 40.96 44.95 38.6 45.74 38.6 45.74 32.53 47.88 32.53 47.88 32.48 47.9 32.43 47.94 32.41 47.99 32.37 48.08 32.39 48.15 32.42 48.19 32.45 48.24 32.5 48.29 32.6 48.29 32.6 48.29 40.61 48.29 40.61 48.29 40.61 48.29 42.13 47.65 42.13 47.65 42.13 47.65 53.23 41.06 53.23 41.06 54.37 40.38 55.76 40.24 57.02 40.68 58.28 41.13 59.28 42.1 59.74 43.37 60.47 45.34 59.62 47.58 57.72 48.71ZM 57.74 44.09C 57.49 43.41 56.98 42.91 56.31 42.67 55.65 42.44 54.92 42.51 54.32 42.87 54.32 42.87 43.17 49.49 43.17 49.49 43.13 49.51 43.08 49.54 43.04 49.55 43.04 49.55 41.25 50.31 41.25 50.31 41.11 50.37 40.97 50.4 40.83 50.4 40.83 50.4 32.6 50.4 32.6 50.4 31.79 50.4 31.04 49.99 30.61 49.31 30.18 48.62 30.14 47.78 30.5 47.06 30.77 46.52 31.24 46.1 31.81 45.9 31.81 45.9 37.9 43.75 37.9 43.75 37.91 43.75 37.91 43.74 37.92 43.74 39.18 43.33 39.94 42.04 39.62 40.87 39.45 40.25 39.03 39.74 38.46 39.44 38.12 39.26 37.74 39.17 37.37 39.17 37.12 39.17 36.87 39.21 36.62 39.29 36.62 39.29 30.22 41.4 30.22 41.4 30.14 41.42 30.05 41.44 29.96 41.45 29.96 41.45 13.36 42.54 13.36 42.54 12.79 42.58 12.26 42.82 11.86 43.22 11.86 43.22 2.91 52.07 2.91 52.07 1.99 52.98 1.87 54.45 2.65 55.34 3.01 55.76 5.35 57.96 7.22 59.73 8.33 60.78 9.4 61.79 10.17 62.53 10.17 62.53 14.35 59.08 14.35 59.08 15.76 57.92 17.55 57.28 19.39 57.28 19.39 57.28 36.23 57.28 36.23 57.28 36.54 57.28 36.86 57.22 37.15 57.09 37.15 57.09 45.06 53.74 45.06 53.74 45.06 53.74 45.4 53.56 45.4 53.56 45.4 53.56 56.62 46.9 56.62 46.9 57.63 46.31 58.11 45.1 57.74 44.09ZM 39.56 25.46C 39.56 25.46 39.56 30.37 39.56 30.37 39.56 30.37 39.56 30.37 39.56 30.37 39.56 30.37 39.56 33.62 39.56 33.62 39.56 34.2 39.08 34.68 38.5 34.68 37.91 34.68 37.43 34.2 37.43 33.62 37.43 33.62 37.43 31.19 37.43 31.19 27.17 29.78 19.12 21.54 18.13 11.26 18.1 10.95 18.22 10.64 18.44 10.42 18.66 10.19 18.98 10.08 19.29 10.11 27.31 10.87 34.09 15.76 37.43 22.62 37.43 22.62 37.43 15.45 37.43 15.45 31.38 14.45 26.67 9.52 26.08 3.4 26.05 3.09 26.16 2.78 26.39 2.55 26.61 2.33 26.93 2.22 27.24 2.25 31.52 2.65 35.22 5 37.43 8.38 37.43 8.38 37.43 4.42 37.43 4.42 37.43 1.98 39.44-0 41.9-0 42.49-0 42.97 0.47 42.97 1.05 42.97 1.63 42.49 2.11 41.9 2.11 40.61 2.11 39.56 3.14 39.56 4.42 39.56 4.42 39.56 16.88 39.56 16.88 42.9 10.03 49.69 5.13 57.7 4.38 58.01 4.35 58.33 4.46 58.55 4.68 58.78 4.9 58.89 5.21 58.86 5.53 57.87 15.81 49.83 24.05 39.56 25.46ZM 20.42 12.38C 21.71 20.22 27.55 26.54 35.19 28.59 35.19 28.59 26.39 19.89 26.39 19.89 25.97 19.48 25.97 18.81 26.39 18.4 26.8 17.99 27.48 17.99 27.89 18.4 27.89 18.4 36.9 27.3 36.9 27.3 34.92 19.6 28.47 13.66 20.42 12.38ZM 28.42 4.56C 29.38 8.9 32.83 12.32 37.22 13.27 36.26 8.93 32.81 5.51 28.42 4.56ZM 40.09 21.57C 40.09 21.57 49.1 12.66 49.1 12.66 49.51 12.25 50.19 12.25 50.6 12.66 51.02 13.07 51.02 13.74 50.6 14.15 50.6 14.15 41.81 22.85 41.81 22.85 49.44 20.8 55.29 14.48 56.57 6.64 48.53 7.93 42.07 13.86 40.09 21.57Z" fill="rgb(71,71,71)"/></svg>