<?xml version="1.0" encoding="utf-8"?>
<svg xmlns="http://www.w3.org/2000/svg"
	xmlns:xlink="http://www.w3.org/1999/xlink"
	width="60px" height="56px" viewBox="0 0 60 56">
<path fillRule="evenodd" d="M 52.81 9.35C 52.81 9.35 41.34 9.35 41.34 9.35 41.34 9.35 41.34 5.13 41.34 5.13 41.34 2.3 39.04-0 36.22-0 36.22-0 23.78-0 23.78-0 20.96-0 18.66 2.3 18.66 5.13 18.66 5.13 18.66 9.35 18.66 9.35 18.66 9.35 7.19 9.35 7.19 9.35 3.23 9.35-0 12.59-0 16.57-0 16.57-0 33.2-0 33.2-0 34.88 0.82 36.38 2.08 37.32 2.07 37.33 2.07 37.34 2.07 37.35 2.07 37.35 2.07 48.79 2.07 48.79 2.07 52.76 5.3 56 9.27 56 9.27 56 50.73 56 50.73 56 54.7 56 57.93 52.76 57.93 48.79 57.93 48.79 57.93 37.35 57.93 37.35 57.93 37.34 57.93 37.33 57.92 37.32 59.18 36.38 60 34.88 60 33.2 60 33.2 60 16.57 60 16.57 60 12.59 56.77 9.35 52.81 9.35ZM 20.6 5.13C 20.6 3.38 22.03 1.95 23.78 1.95 23.78 1.95 36.22 1.95 36.22 1.95 37.97 1.95 39.4 3.38 39.4 5.13 39.4 5.13 39.4 9.35 39.4 9.35 39.4 9.35 37.19 9.35 37.19 9.35 37.19 9.35 37.19 5.13 37.19 5.13 37.19 4.59 36.76 4.16 36.22 4.16 36.22 4.16 23.78 4.16 23.78 4.16 23.24 4.16 22.81 4.59 22.81 5.13 22.81 5.13 22.81 9.35 22.81 9.35 22.81 9.35 20.6 9.35 20.6 9.35 20.6 9.35 20.6 5.13 20.6 5.13ZM 24.75 9.35C 24.75 9.35 24.75 6.11 24.75 6.11 24.75 6.11 35.25 6.11 35.25 6.11 35.25 6.11 35.25 9.35 35.25 9.35 35.25 9.35 24.75 9.35 24.75 9.35ZM 55.98 48.79C 55.98 51.69 53.63 54.05 50.73 54.05 50.73 54.05 9.27 54.05 9.27 54.05 6.37 54.05 4.02 51.69 4.02 48.79 4.02 48.79 4.02 38.21 4.02 38.21 4.37 38.29 4.74 38.33 5.12 38.33 5.12 38.33 10.37 38.33 10.37 38.33 10.37 38.33 10.37 39.43 10.37 39.43 10.37 41.12 11.73 42.49 13.41 42.49 13.41 42.49 15.49 42.49 15.49 42.49 17.17 42.49 18.53 41.12 18.53 39.43 18.53 39.43 18.53 38.33 18.53 38.33 18.53 38.33 41.47 38.33 41.47 38.33 41.47 38.33 41.47 39.43 41.47 39.43 41.47 41.12 42.83 42.49 44.51 42.49 44.51 42.49 46.59 42.49 46.59 42.49 48.27 42.49 49.63 41.12 49.63 39.43 49.63 39.43 49.63 38.33 49.63 38.33 49.63 38.33 54.88 38.33 54.88 38.33 55.26 38.33 55.63 38.29 55.98 38.21 55.98 38.21 55.98 48.79 55.98 48.79ZM 16.59 36.38C 16.59 36.38 12.31 36.38 12.31 36.38 12.31 36.38 12.31 35.28 12.31 35.28 12.31 34.67 12.81 34.17 13.41 34.17 13.41 34.17 15.49 34.17 15.49 34.17 16.09 34.17 16.59 34.67 16.59 35.28 16.59 35.28 16.59 36.38 16.59 36.38ZM 16.59 38.33C 16.59 38.33 16.59 39.43 16.59 39.43 16.59 40.04 16.09 40.54 15.49 40.54 15.49 40.54 13.41 40.54 13.41 40.54 12.81 40.54 12.31 40.04 12.31 39.43 12.31 39.43 12.31 38.33 12.31 38.33 12.31 38.33 16.59 38.33 16.59 38.33ZM 47.69 36.38C 47.69 36.38 43.41 36.38 43.41 36.38 43.41 36.38 43.41 35.28 43.41 35.28 43.41 34.67 43.91 34.17 44.51 34.17 44.51 34.17 46.59 34.17 46.59 34.17 47.19 34.17 47.69 34.67 47.69 35.28 47.69 35.28 47.69 36.38 47.69 36.38ZM 47.69 38.33C 47.69 38.33 47.69 39.43 47.69 39.43 47.69 40.04 47.19 40.54 46.59 40.54 46.59 40.54 44.51 40.54 44.51 40.54 43.91 40.54 43.41 40.04 43.41 39.43 43.41 39.43 43.41 38.33 43.41 38.33 43.41 38.33 47.69 38.33 47.69 38.33ZM 58.06 33.2C 58.06 34.95 56.63 36.38 54.88 36.38 54.88 36.38 49.63 36.38 49.63 36.38 49.63 36.38 49.63 35.28 49.63 35.28 49.63 33.59 48.27 32.22 46.59 32.22 46.59 32.22 44.51 32.22 44.51 32.22 42.83 32.22 41.47 33.59 41.47 35.28 41.47 35.28 41.47 36.38 41.47 36.38 41.47 36.38 18.53 36.38 18.53 36.38 18.53 36.38 18.53 35.28 18.53 35.28 18.53 33.59 17.17 32.22 15.49 32.22 15.49 32.22 13.41 32.22 13.41 32.22 11.73 32.22 10.37 33.59 10.37 35.28 10.37 35.28 10.37 36.38 10.37 36.38 10.37 36.38 5.12 36.38 5.12 36.38 3.37 36.38 1.94 34.95 1.94 33.2 1.94 33.2 1.94 16.57 1.94 16.57 1.94 13.66 4.3 11.3 7.19 11.3 7.19 11.3 52.81 11.3 52.81 11.3 55.7 11.3 58.06 13.66 58.06 16.57 58.06 16.57 58.06 33.2 58.06 33.2Z" fill="rgb(71,71,71)"/></svg>