<?xml version="1.0" encoding="utf-8"?>
<svg xmlns="http://www.w3.org/2000/svg"
	xmlns:xlink="http://www.w3.org/1999/xlink"
	width="60px" height="60px" viewBox="0 0 60 60">
<path fillRule="evenodd" d="M 51.21 51.21C 45.55 56.88 38.01 60 30 60 21.7 60 13.83 56.58 8.16 50.57 8.16 50.57 8.16 54.88 8.16 54.88 8.16 55.42 7.73 55.85 7.19 55.85 6.66 55.85 6.22 55.42 6.22 54.88 6.22 54.88 6.22 48.66 6.22 48.66 6.22 48.12 6.66 47.69 7.19 47.69 7.19 47.69 13.41 47.69 13.41 47.69 13.95 47.69 14.38 48.12 14.38 48.66 14.38 49.2 13.95 49.63 13.41 49.63 13.41 49.63 9.96 49.63 9.96 49.63 15.23 55.01 22.42 58.06 30 58.06 37.49 58.06 44.54 55.14 49.84 49.84 55.14 44.54 58.06 37.49 58.06 30 58.06 25.07 56.76 20.22 54.3 15.97 54.03 15.51 54.19 14.91 54.66 14.64 55.12 14.37 55.72 14.53 55.99 15 58.61 19.54 60 24.73 60 30 60 38.01 56.88 45.55 51.21 51.21ZM 30 8.29C 41.97 8.29 51.71 18.03 51.71 30 51.71 41.97 41.97 51.71 30 51.71 18.03 51.71 8.29 41.97 8.29 30 8.29 30 8.29 30 8.29 30 8.29 30 8.29 30 8.29 30 8.29 18.03 18.03 8.29 30 8.29ZM 12.38 30.97C 12.38 30.97 10.26 30.97 10.26 30.97 10.75 41.1 18.9 49.25 29.03 49.74 29.03 49.74 29.03 47.62 29.03 47.62 29.03 47.09 29.46 46.65 30 46.65 30.54 46.65 30.97 47.09 30.97 47.62 30.97 47.62 30.97 49.74 30.97 49.74 41.1 49.25 49.25 41.1 49.74 30.97 49.74 30.97 47.62 30.97 47.62 30.97 47.09 30.97 46.65 30.54 46.65 30 46.65 29.46 47.09 29.03 47.62 29.03 47.62 29.03 49.74 29.03 49.74 29.03 49.25 18.9 41.1 10.75 30.97 10.26 30.97 10.26 30.97 12.38 30.97 12.38 30.97 12.91 30.54 13.35 30 13.35 29.46 13.35 29.03 12.91 29.03 12.38 29.03 12.38 29.03 10.26 29.03 10.26 18.9 10.75 10.75 18.9 10.26 29.03 10.26 29.03 12.38 29.03 12.38 29.03 12.91 29.03 13.35 29.46 13.35 30 13.35 30.54 12.91 30.97 12.38 30.97ZM 23.78 29.03C 23.78 29.03 26.04 29.03 26.04 29.03 26.47 27.24 28.08 25.92 30 25.92 30.77 25.92 31.5 26.13 32.12 26.51 32.12 26.51 41.24 17.39 41.24 17.39 41.61 17.01 42.23 17.01 42.61 17.39 42.99 17.77 42.99 18.39 42.61 18.76 42.61 18.76 33.49 27.88 33.49 27.88 33.7 28.23 33.86 28.62 33.96 29.03 33.96 29.03 42.44 29.03 42.44 29.03 42.98 29.03 43.41 29.46 43.41 30 43.41 30.54 42.98 30.97 42.44 30.97 42.44 30.97 33.96 30.97 33.96 30.97 33.53 32.75 31.92 34.08 30 34.08 29.23 34.08 28.5 33.87 27.88 33.49 27.88 33.49 25.5 35.87 25.5 35.87 25.31 36.06 25.06 36.15 24.82 36.15 24.57 36.15 24.32 36.06 24.13 35.87 23.75 35.49 23.75 34.88 24.13 34.5 24.13 34.5 26.51 32.12 26.51 32.12 26.3 31.76 26.14 31.38 26.04 30.97 26.04 30.97 23.78 30.97 23.78 30.97 23.24 30.97 22.81 30.54 22.81 30 22.81 29.46 23.24 29.03 23.78 29.03ZM 30 32.14C 31.18 32.14 32.14 31.18 32.14 30 32.14 28.82 31.18 27.86 30 27.86 28.82 27.86 27.86 28.82 27.86 30 27.86 31.18 28.82 32.14 30 32.14ZM 52.81 12.31C 52.81 12.31 46.59 12.31 46.59 12.31 46.05 12.31 45.62 11.88 45.62 11.34 45.62 10.8 46.05 10.37 46.59 10.37 46.59 10.37 50.04 10.37 50.04 10.37 44.78 4.99 37.59 1.94 30 1.94 22.51 1.94 15.46 4.86 10.16 10.16 4.86 15.46 1.94 22.51 1.94 30 1.94 34.93 3.24 39.78 5.7 44.02 5.96 44.49 5.81 45.08 5.34 45.35 5.19 45.44 5.02 45.48 4.85 45.48 4.52 45.48 4.19 45.31 4.01 45 1.39 40.46-0 35.27-0 30-0 21.99 3.12 14.45 8.79 8.79 14.45 3.12 21.99-0 30-0 38.31-0 46.17 3.42 51.84 9.43 51.84 9.43 51.84 5.12 51.84 5.12 51.84 4.58 52.27 4.15 52.81 4.15 53.34 4.15 53.78 4.58 53.78 5.12 53.78 5.12 53.78 11.34 53.78 11.34 53.78 11.88 53.34 12.31 52.81 12.31Z" fill="rgb(70,70,70)"/></svg>